# xmcd
#
# Track frame offsets:
#	150
#	14022
#	27672
#	44170
#	55010
#	73270
#	89472
#	104772
#	120820
#	137545
#	154197
#	167997
#	183072
#	196347
#	211120
#	225745
#	240487
#	257232
#	274270
#	288972
#
# Disc length: 4119 seconds
#
# Revision: 0
# Processed by: cddbd v1.5.2PL0 Copyright (c) Steve Scherf et al.
# Submitted via: EasyCDDAExtractor 10.5.1.1
#
DISCID=26101514
DTITLE=Joel Hallikainen - Kuurankukka
DYEAR=1997
DGENRE=Pop
TTITLE0=Kuurankukka
TTITLE1=Sininen on  kesäyö
TTITLE2=Vain sinulle
TTITLE3=Mietin elämää
TTITLE4=Onnensirpale
TTITLE5=Hyvästi voi sanoa vain kerran
TTITLE6=Aika kulkee
TTITLE7=Hiekkalinna
TTITLE8=Ilta tulee aina liian pian
TTITLE9=Lumihiutaleita
TTITLE10=Anna vierellesi tulla
TTITLE11=Muistojain et anna
TTITLE12=Joutsen
TTITLE13=Antaa surun mennä
TTITLE14=Tämä yö
TTITLE15=Surun pisaroita
TTITLE16=Antaa menneiden mennä
TTITLE17=Kellastuneet kirjeet
TTITLE18=Mihin kaarnalaivat katoaa
TTITLE19=Kiitos elämälle
EXTD=
EXTT0=
EXTT1=
EXTT2=
EXTT3=
EXTT4=
EXTT5=
EXTT6=
EXTT7=
EXTT8=
EXTT9=
EXTT10=
EXTT11=
EXTT12=
EXTT13=
EXTT14=
EXTT15=
EXTT16=
EXTT17=
EXTT18=
EXTT19=
PLAYORDER=
